<svg xmlns:dc="http://purl.org/dc/elements/1.1/" xmlns:cc="http://creativecommons.org/ns#" xmlns:rdf="http://www.w3.org/1999/02/22-rdf-syntax-ns#" xmlns:svg="http://www.w3.org/2000/svg" xmlns="http://www.w3.org/2000/svg" xmlns:sodipodi="http://sodipodi.sourceforge.net/DTD/sodipodi-0.dtd" xmlns:inkscape="http://www.inkscape.org/namespaces/inkscape" version="1.1" x="0px" y="0px" viewBox="0 0 100 125"><g transform="translate(0,-952.36218)"><g transform="translate(2.9980315,973.35556)"><path d="m 37.771653,0.14173229 c 2.905512,0.42519688 5.633859,1.77165361 7.405512,4.07480341 1.204725,1.5590552 1.913386,3.5787404 2.055118,5.9173233 1.913386,-2.1968506 4.925197,-2.4803152 7.26378,-1.6653545 0.956693,-2.3031498 2.622047,-4.0748034 4.712598,-5.0669295 2.374016,-1.1338583 5.137796,-1.452756 7.688977,-1.0629922 2.586614,0.4251969 4.996063,1.5590552 6.590551,3.5078743 1.452756,1.8070867 2.090551,4.2874019 1.594488,7.1574809 3.153543,1.346457 5.456693,2.870079 6.661417,5.669291 1.84252,0.389764 3.188977,1.240158 4.464567,2.374016 5.740158,8.787403 7.72441,21.401577 7.795276,30.685042 0,0.425197 -0.318898,0.850393 -0.744095,0.956693 C 67.003937,59.775594 27,59.775594 0.74409449,52.68898 0.31889764,52.58268 0,52.157484 0,51.732287 0,41.633861 2.0905512,31.216537 7.0866142,22.074805 c 0.4960629,-1.48819 1.5590551,-2.267717 2.7283464,-2.976379 -0.5669291,-3.543307 1.7007874,-5.633858 4.0393704,-6.271654 -0.531496,-2.515748 -0.1063,-5.3503936 2.232283,-6.4133858 2.019685,-0.8503937 4.606299,-0.2834646 7.370079,0.956693 1.488189,-2.8346458 3.330709,-4.6771656 5.42126,-5.811024 2.65748,-1.45275598 5.704724,-1.77165364 8.8937,-1.41732291 z M 24.944882,8.9291344 c -0.212599,0.5314961 -0.885827,0.8149607 -1.38189,0.5669292 -2.870079,-1.4173229 -5.385827,-1.7716537 -6.661417,-1.2047245 -1.807087,1.1692914 -1.38189,3.5078739 -0.92126,5.0669299 0.141732,0.602362 -0.389764,1.240157 -0.992126,1.240157 -4.925197,1.098425 -2.870079,7.157481 -1.275591,9.708662 2.161418,0.531496 4.889764,1.027559 7.937008,1.488189 7.688977,1.133859 17.397638,1.84252 25.334646,1.84252 7.440945,0 17.149606,-0.708661 24.980315,-1.84252 3.082677,-0.425197 5.846456,-0.956693 8.07874,-1.488189 1.027559,-5.385827 -2.338583,-8.362205 -6.34252,-9.744095 C 73.204724,14.421261 72.92126,13.854332 73.027559,13.393702 73.73622,10.629922 73.133858,8.6456698 71.929134,7.1574808 70.724409,5.6692917 68.77559,4.6771656 66.57874,4.3228349 64.417323,3.9685042 62.043307,4.2519688 60.094488,5.2086617 c -1.948819,0.9212599 -3.472441,2.4803152 -4.110236,4.7125988 -0.177166,0.5314965 -0.92126,0.8503935 -1.417323,0.5669295 -3.685039,-1.6299217 -6.23622,0.744094 -7.653543,3.57874 -0.212599,0.46063 -0.779528,0.673228 -1.240158,0.531496 -0.46063,-0.177165 -0.744094,-0.708661 -0.637795,-1.169291 0.708661,-3.5433076 0,-6.129922 -1.452756,-7.9724418 C 42.165354,3.6141735 39.933071,2.4803151 37.452756,2.0905513 34.653543,1.8425198 31.854331,2.409449 29.551181,3.6850396 27.46063,4.854331 25.830709,6.6259847 24.944882,8.9291344 z M 63.992126,7.5826776 c 0.566929,0 0.992126,0.46063 0.992126,0.9921261 0,0.5669291 -0.425197,1.0275591 -0.992126,1.0275591 C 63.46063,9.6023628 63,9.1417328 63,8.5748037 63,8.0433076 63.46063,7.5826776 63.992126,7.5826776 z M 36,8.5748037 c 0.566929,0 0.992126,0.4606299 0.992126,1.0275591 0,0.5314962 -0.425197,0.9921262 -0.992126,0.9921262 -0.566929,0 -0.992126,-0.46063 -0.992126,-0.9921262 0,-0.5669292 0.425197,-1.0275591 0.992126,-1.0275591 z M 22.003937,12.614174 c 0.531496,0 0.992126,0.425197 0.992126,0.992126 0,0.566929 -0.46063,0.992126 -0.992126,0.992126 -0.566929,0 -0.992126,-0.425197 -0.992126,-0.992126 0,-0.566929 0.425197,-0.992126 0.992126,-0.992126 z M 59.988189,13.6063 c 0.566929,0 1.027559,0.46063 1.027559,0.992126 0,0.566929 -0.46063,1.027559 -1.027559,1.027559 -0.531496,0 -0.992126,-0.46063 -0.992126,-1.027559 0,-0.531496 0.46063,-0.992126 0.992126,-0.992126 z m -15.980315,3.011811 c 0.531496,0 0.992126,0.46063 0.992126,0.992126 0,0.566929 -0.46063,0.992126 -0.992126,0.992126 -0.566929,0 -0.992126,-0.425197 -0.992126,-0.992126 0,-0.531496 0.425197,-0.992126 0.992126,-0.992126 z m 19.984252,1.984252 c 0.566929,0 0.992126,0.46063 0.992126,1.027559 0,0.531497 -0.425197,0.992127 -0.992126,0.992127 C 63.46063,20.622049 63,20.161419 63,19.629922 c 0,-0.566929 0.46063,-1.027559 0.992126,-1.027559 z m 4.996063,1.027559 c 0.566929,0 1.027559,0.425197 1.027559,0.992127 0,0.566929 -0.46063,0.992126 -1.027559,0.992126 -0.531496,0 -0.992126,-0.425197 -0.992126,-0.992126 0,-0.56693 0.46063,-0.992127 0.992126,-0.992127 z m -38.976378,0.992127 c 0.531496,0 0.992126,0.460629 0.992126,0.992126 0,0.566929 -0.46063,1.027559 -0.992126,1.027559 -0.566929,0 -1.027559,-0.46063 -1.027559,-1.027559 0,-0.531497 0.46063,-0.992126 1.027559,-0.992126 z m 52.192913,0.248031 c 0.07087,0.885827 0.07087,1.84252 -0.03543,2.905512 0.992126,-0.283465 1.913386,-0.673228 2.728347,-1.204724 -0.744095,-0.814961 -1.771654,-1.311024 -2.692914,-1.700788 z m -72.070866,0.354331 c -0.4960627,0.318897 -0.8149604,0.81496 -1.098425,1.346457 0.5669292,0.460629 1.346457,0.708661 1.948819,0.921259 -0.354331,-0.779527 -0.673228,-1.523622 -0.850394,-2.267716 z m 12.862205,1.417323 c 0.566929,0 0.992126,0.425197 0.992126,0.992126 0,0.566929 -0.425197,0.992126 -0.992126,0.992126 -0.531496,0 -0.992126,-0.425197 -0.992126,-0.992126 0,-0.566929 0.46063,-0.992126 0.992126,-0.992126 z m 38.019685,1.984252 c 0.531496,0 0.992126,0.46063 0.992126,1.027559 0,0.531496 -0.46063,0.992126 -0.992126,0.992126 -0.566929,0 -1.027559,-0.46063 -1.027559,-0.992126 0,-0.566929 0.46063,-1.027559 1.027559,-1.027559 z M 54.46063,37.736223 c -1.027559,0.106299 -2.125984,0.708661 -2.480315,1.948819 -0.141732,0.425197 -0.531496,0.708661 -0.992126,0.708661 l -7.972441,0 c -0.46063,0 -0.850394,-0.283464 -0.992126,-0.708661 -0.354331,-1.240158 -1.452756,-1.84252 -2.480315,-1.948819 -0.779528,-0.141732 -1.169291,0.248031 -1.559055,0.566929 0,1.629921 1.559055,2.444882 2.763779,3.791339 0.318898,0.354331 0.318898,0.956693 0,1.311023 -1.204724,1.38189 -2.763779,2.161418 -2.763779,3.791339 0.177165,0.602363 0.637795,0.496063 1.133858,0.531496 0.92126,-0.106299 2.196851,-0.744094 3.047244,-2.161417 0.177166,-0.283465 0.496063,-0.46063 0.850394,-0.46063 l 7.972441,0 c 0.354331,0 0.673228,0.177165 0.850394,0.46063 0.850393,1.417323 2.125984,2.055118 3.047244,2.161417 0.779527,0.177166 0.850393,-0.248031 1.098425,-0.531496 0,-1.629921 -1.523622,-2.409449 -2.728347,-3.791339 -0.318897,-0.35433 -0.318897,-0.956692 0,-1.311023 1.204725,-1.346457 2.728347,-2.161418 2.728347,-3.791339 -0.212599,-0.602362 -0.956693,-0.531496 -1.523622,-0.566929 z" style="" fill="#000000" fill-opacity="1" fill-rule="nonzero" stroke="none"/></g></g><text x="0" y="115" fill="#000000" font-size="5px" font-weight="bold" font-family="'Helvetica Neue', Helvetica, Arial-Unicode, Arial, Sans-serif">Created by zidney</text><text x="0" y="120" fill="#000000" font-size="5px" font-weight="bold" font-family="'Helvetica Neue', Helvetica, Arial-Unicode, Arial, Sans-serif">from the Noun Project</text></svg>