<svg xmlns="http://www.w3.org/2000/svg" data-name="Layer 1" viewBox="0 0 128 160" x="0px" y="0px"><title>Artboard 79</title><path d="M64,0A52,52,0,0,0,46,100.8l14.68,25.27a4,4,0,0,0,6.64,0L82,100.8A52,52,0,0,0,64,0Zm4,24a4,4,0,0,1,8,0V40a4,4,0,0,1-8,0ZM52,24a4,4,0,0,1,8,0V40a4,4,0,0,1-8,0ZM40.21,53.26l-4-12a4,4,0,0,1,7.59-2.53l4,12a4,4,0,1,1-7.59,2.53ZM64,81c-11.4,0-20-5.16-20-12,0-4.14,3.07-7.72,8.35-9.88a12,12,0,0,1,23.3,0C80.93,61.28,84,64.86,84,69,84,75.84,75.4,81,64,81ZM91.79,41.26l-4,12a4,4,0,0,1-7.59-2.53l4-12a4,4,0,1,1,7.59,2.53Z"/><path d="M70.88,65.92,68,65.08V61.89a4,4,0,0,0-8,0v3.2l-2.89.84C53.28,67,52,68.66,52,69c0,1,4.26,4,12,4s12-3,12-4C76,68.66,74.72,67,70.88,65.92Z"/><text x="0" y="143" fill="#000000" font-size="5px" font-weight="bold" font-family="'Helvetica Neue', Helvetica, Arial-Unicode, Arial, Sans-serif">Created by Juraj Sedlák</text><text x="0" y="148" fill="#000000" font-size="5px" font-weight="bold" font-family="'Helvetica Neue', Helvetica, Arial-Unicode, Arial, Sans-serif">from the Noun Project</text></svg>